<?xml version="1.0" encoding="UTF-8"?>
<!DOCTYPE svg PUBLIC "-//W3C//DTD SVG 1.1//EN" "http://www.w3.org/Graphics/SVG/1.1/DTD/svg11.dtd">
<!-- Creator: CorelDRAW -->
<svg xmlns="http://www.w3.org/2000/svg" xml:space="preserve" width="169.74mm" height="104mm" version="1.1" style="shape-rendering:geometricPrecision; text-rendering:geometricPrecision; image-rendering:optimizeQuality; fill-rule:evenodd; clip-rule:evenodd"
viewBox="0 0 16974 10400"
 xmlns:xlink="http://www.w3.org/1999/xlink"
 xmlns:xodm="http://www.corel.com/coreldraw/odm/2003">
 <defs>
  <style type="text/css">
   <![CDATA[
    .fil1 {fill:white}
    .fil0 {fill:white}
    .fil2 {fill:white;fill-rule:nonzero}
   ]]>
  </style>
 </defs>
 <g id="Layer_x0020_1">
  <metadata id="CorelCorpID_0Corel-Layer"/>
  <g id="_1749393719120">
   <g>
    <g>
     <path class="fil0" d="M12363.63 2841.06l-0.29 -5.35c-23.09,-48.39 -36.02,-102.56 -36.02,-159.75 0,-205.18 166.33,-371.51 371.5,-371.51 205.18,0 371.51,166.33 371.51,371.51 0,205.17 -166.33,371.5 -371.51,371.5l-1 -0.01c-34.79,1.72 -59.86,-2.59 -79.76,-8.82 -28.77,-6.38 -56.3,-16.08 -82.13,-28.71 -32.18,-0.47 -76.16,21.71 -171.54,102.54 -94.65,80.2 -226.26,169.52 -297.37,246.81 -94.51,102.71 -41.25,767.04 -53.19,1034.47l-513.89 -428.22c0.18,-12.21 0.4,-23.82 0.65,-34.94 24.04,-58.24 37.34,-122.03 37.34,-188.94 0,-67.16 -13.39,-131.19 -37.6,-189.59l-1.49 -21.25 864.79 -689.74zm-1321.2 405.08c110.58,0 212.69,36.24 295.13,97.47l13.19 5.58 525.81 -402.11c205.71,-160.38 139.09,-273.27 140.35,-798.01l-2.28 -686.2c-122.82,53.1 -1391.13,1387.53 -1601.56,1602.29l-1398.15 1419.16c-70.8,64.98 -162.26,127.36 -180.04,232.47l2713.58 5.34c216.5,0.07 454.36,268.79 657.61,451.87 201.25,181.26 415.64,354.43 601.09,535.45 499.13,487.2 578.94,1009.97 579.38,1851.97 0.02,65.13 -1.12,35.56 -17.12,89.63l-1337.59 -1.2c-46.42,-176.79 -13.82,-1338.03 -21.04,-1683.96l-3848.14 -3.67c-691.93,0.07 -629.02,-358.53 -629.28,-1020.48 -0.36,-906.57 334.52,-1046.85 1061.73,-1767.02l1411.78 -1430.55c210.75,-223.9 476.36,-480.72 702.35,-706.39 235.98,-235.66 467.29,-508.8 711.37,-722.22 371.93,-325.21 545.17,-266.11 1141.13,-266.41 422.27,-0.21 825.24,-7 825.35,617.08l7.36 4058.34c1237.15,27.43 1069,-187.97 1070.12,859.73 0.17,255.19 4.01,366.33 -270.19,373.43 -207.54,5.37 -434.71,12.1 -628.07,-45.9 -312.32,-93.68 -603.17,-367.49 -797.25,-534.74 -141.8,-122.21 -317,-277.69 -500.92,-439.99 -67.84,-59.86 -136.87,-120.66 -205.86,-181.05l-732.86 -610.45c-80.97,57.63 -180.02,91.52 -286.98,91.52 -273.63,0 -495.48,-221.85 -495.48,-495.48 0,-273.65 221.85,-495.5 495.48,-495.5zm1019.84 1509.91l0.01 0.01 28.47 -276.35 -28.48 276.34z"/>
    </g>
    <path class="fil1" d="M1389.95 6270.85l0 -1887.71 0 -9.81c1131.03,0 2262.02,0 3393.09,0 392.44,0 713.44,321.06 713.44,713.46 0,156.88 0,313.73 0,470.6 0,392.4 -321,713.46 -713.44,713.46l-3393.09 0zm-1132.61 -6229.39l-262.42 0c0,461.34 0,922.16 0,1383.61 1613.56,0 3227.71,6.21 4841.22,6.21 363.18,0 660.34,297.15 660.34,660.36l0 435.62c0,363.2 -297.16,660.36 -660.34,660.36l-3446.19 0 0 -1006.78 -1384.31 0 0 4970.94c0,304.36 199.02,503.38 503.39,503.38l4404.63 0c545.77,0 1175.65,-222.67 1465.48,-485.14 783.34,-709.39 768.95,-3075.77 -269.96,-3353.18l0 -125.84c869.96,-232.3 826.63,-2102.9 485.42,-2813.56 -88.57,-184.49 -257.34,-354.9 -410.74,-470.21 -403.1,-302.97 -1115.35,-365.77 -1610.27,-365.77l-4316.25 0z"/>
    <path class="fil1" d="M14618.25 386.3c0,184.99 -46.65,741.96 68.68,899.55 42.83,90.18 108.8,146.81 206.86,146.81l80.96 0 610.76 0 0 6225.44c461.28,0 922.11,0 1383.43,0l0 -6581.95 0 -689.85c0,-196.07 -160.39,-356.5 -356.51,-356.5 -545.98,0 -1091.71,0 -1637.68,0 -211.18,0 -356.5,147.04 -356.5,356.5z"/>
   </g>
   <path class="fil1" d="M1195.98 9513.29c70.06,32.3 127.92,79.88 170.94,144.02 46.95,69.98 64.05,152.12 64.05,235.4 0,134.36 -50.95,245.2 -160.34,324.46 -126.69,91.81 -305,112.91 -457.13,112.91l-776.13 0 0 -1560.84 733.25 0c145.57,0 309.98,22.38 429.66,112.14 102.2,76.65 153.5,180.4 153.5,308.08 0,78.67 -17.03,154.94 -60.68,221.25 -26.59,40.39 -59.09,74.58 -97.12,102.58zm1723.84 469.45l-711.08 0 -148.63 347.34 -353.49 0 702.38 -1560.84 313.2 0 704.61 1560.84 -357.82 0 -149.17 -347.34zm1382.9 368.78c-117.45,0 -233.45,-16.62 -345.59,-51.75 -93.83,-29.4 -189.67,-71.63 -265.48,-135.39l-17.29 -14.54 121.34 -272.34 30.27 23.78c63.68,50.03 138.45,86.26 214.49,113.24 84.65,30.03 172.42,45.44 262.26,45.44 58.36,0 125.39,-4.45 180.83,-24.02 34.28,-12.1 70.72,-30.62 93.54,-59.85 18.74,-24.01 27.96,-50.78 27.96,-81.24 0,-35.43 -11.55,-64.49 -38.72,-87.53 -33.63,-28.51 -75.41,-47.57 -117.19,-60.74 -56.29,-17.73 -113.64,-32.5 -171.22,-45.44 -64.92,-14.59 -129.28,-31.63 -192.96,-50.94 -62.8,-19.05 -123.58,-44.57 -180.17,-77.9 -56.42,-33.23 -102.38,-77.81 -137.63,-132.99 -40.55,-63.46 -54.04,-139.11 -54.04,-213.4 0,-86.78 23.27,-167.24 70.16,-240.26 51.12,-79.62 126.97,-135.18 212.18,-174.04 108.2,-49.34 234.46,-63.81 352.28,-63.81 93.08,0 185.37,12 275.51,35.26 84.74,21.87 166.95,54.61 240.45,102.55l20.71 13.51 -110.35 271.81 -30.01 -17.88c-62.82,-37.42 -129.8,-66.71 -200.44,-85.78 -64.53,-17.42 -131.07,-27.91 -198.01,-27.91 -57.23,0 -122.93,4.95 -176.75,25.84 -33.99,13.19 -69.7,32.84 -91.77,62.75 -18.72,25.36 -27.38,53.6 -27.38,85.1 0,35.12 11.06,64.49 37.9,87.75 32.8,28.43 74.26,46.91 115.5,59.34 57.06,17.18 114.89,32.07 172.91,45.6 64.94,15.15 129.47,32.1 193.48,50.8 62.73,18.33 123.53,43.08 180.22,75.7 56.61,32.57 102.35,76.93 136.97,132.31 39.44,63.1 52.81,137.53 52.81,211.01 0,86.07 -23.65,165.69 -70.16,238.12 -51.29,79.88 -127.78,135.37 -213.35,174.07 -108.71,49.18 -235.01,63.77 -353.26,63.77zm1458.37 -1288.57l0 330.21 724.69 0 0 289.42 -724.69 0 0 353.8 846.9 0 0 293.7 -1185.63 0 0 -1560.84 1155.61 0 0 293.71 -816.88 0zm1364.07 1267.13l0 -1560.84 686.08 0c153.41,0 305.07,27.33 442.47,97.63 124.38,63.64 225.93,153.51 299.19,272.57 76.65,124.55 107.37,265.02 107.37,410.22 0,145 -31.22,284.63 -107.33,409.09 -73.1,119.56 -174.52,209.9 -299.23,273.7 -137.41,70.3 -289.06,97.63 -442.47,97.63l-686.08 0zm-6749.06 -278.69l420.25 0c72.17,0 161.49,-8.29 224.41,-47.01 51.25,-31.54 69.34,-80.83 69.34,-139.54 0,-58.69 -18.92,-106.79 -69.58,-138.62 -62.74,-39.41 -151.84,-47.93 -224.17,-47.93l-420.25 0 0 373.1zm0 -649.65l364.5 0c67.55,0 149.67,-8.45 207.58,-46.53 46.5,-30.57 64.73,-74.72 64.73,-129.3 0,-55.23 -17.79,-100.58 -64.73,-131.44 -57.91,-38.08 -140.03,-46.53 -207.58,-46.53l-364.5 0 0 353.8zm2424.04 302.31l-236.51 -550.69 -235.64 550.69 472.15 0zm4663.75 330.18l334.49 0c96.08,0 191.86,-16.51 277.81,-60.97 75.95,-39.28 136.65,-94.67 179.76,-168.57 45.53,-78.06 63.45,-165.29 63.45,-255.03 0,-89.83 -17.44,-177.95 -63.39,-256 -43.26,-73.47 -104.14,-128.46 -179.82,-167.6 -85.95,-44.46 -181.73,-60.97 -277.81,-60.97l-334.49 0 0 969.14z"/>
   <path class="fil2" d="M67.37 10300.08l0 -1500.84 703.25 0c180.1,0 317.32,35.38 411.66,106.14 94.33,70.75 141.5,165.44 141.5,284.08 0,80.05 -18.58,148.3 -55.74,204.76 -37.16,56.46 -86.84,100.05 -149.01,130.79 -62.18,30.73 -129.72,46.09 -202.62,46.09l38.6 -77.18c84.33,0 160.09,15.36 227.27,46.09 67.18,30.74 120.42,75.4 159.73,134.01 39.31,58.6 58.96,131.5 58.96,218.69 0,128.64 -49.31,228.7 -147.94,300.17 -98.63,71.47 -245.14,107.2 -439.53,107.2l-746.13 0zm278.73 -218.69l450.25 0c104.34,0 184.39,-17.16 240.13,-51.46 55.75,-34.31 83.62,-89.34 83.62,-165.09 0,-74.33 -27.87,-129 -83.62,-164.02 -55.74,-35.02 -135.79,-52.53 -240.13,-52.53l-471.69 0 0 -216.55 415.94 0c97.2,0 171.88,-17.15 224.06,-51.46 52.17,-34.3 78.25,-85.76 78.25,-154.37 0,-70.04 -26.08,-122.21 -78.25,-156.51 -52.18,-34.31 -126.86,-51.46 -224.06,-51.46l-394.5 0 0 1063.45zm1406.92 218.69l675.38 -1500.84 274.43 0 677.52 1500.84 -291.59 0 -581.03 -1352.9 111.49 0 -578.9 1352.9 -287.3 0zm310.89 -347.34l75.04 -218.69 810.45 0 75.04 218.69 -960.53 0zm2238.81 368.78c-117.21,0 -229.41,-16.79 -336.62,-50.38 -107.2,-33.59 -192.25,-76.83 -255.14,-129.72l96.48 -216.55c60.04,47.17 134.36,86.48 222.99,117.92 88.62,31.45 179.38,47.17 272.29,47.17 78.61,0 142.22,-8.57 190.82,-25.73 48.6,-17.15 84.33,-40.38 107.2,-69.68 22.87,-29.3 34.31,-62.53 34.31,-99.7 0,-45.74 -16.44,-82.54 -49.32,-110.41 -32.87,-27.88 -75.39,-50.03 -127.57,-66.47 -52.17,-16.44 -110.06,-31.8 -173.66,-46.1 -63.61,-14.29 -127.22,-31.09 -190.83,-50.38 -63.6,-19.3 -121.49,-44.31 -173.66,-75.04 -52.18,-30.73 -94.7,-71.83 -127.57,-123.29 -32.88,-51.45 -49.32,-117.2 -49.32,-197.25 0,-81.47 21.8,-156.16 65.4,-224.05 43.59,-67.9 110.06,-122.21 199.39,-162.95 89.34,-40.74 202.62,-61.11 339.83,-61.11 90.05,0 179.39,11.44 268.01,34.31 88.62,22.87 165.81,55.74 231.56,98.63l-87.91 216.54c-67.18,-40.02 -136.5,-69.68 -207.97,-88.97 -71.47,-19.3 -140.08,-28.95 -205.83,-28.95 -77.19,0 -139.72,9.29 -187.6,27.87 -47.89,18.59 -82.91,42.89 -105.06,72.9 -22.16,30.02 -33.24,64.32 -33.24,102.92 0,45.74 16.09,82.54 48.25,110.42 32.16,27.87 74.32,49.67 126.5,65.39 52.17,15.72 110.41,31.09 174.74,46.1 64.32,15 128.28,31.8 191.89,50.38 63.6,18.58 121.49,42.88 173.67,72.9 52.17,30.02 94.33,70.75 126.49,122.21 32.17,51.46 48.25,116.49 48.25,195.11 0,80.04 -21.8,154.01 -65.4,221.91 -43.59,67.89 -110.42,122.21 -200.47,162.95 -90.05,40.73 -203.68,61.1 -340.9,61.1zm1149.64 -21.44l0 -1500.84 1095.61 0 0 233.71 -816.88 0 0 1033.43 846.9 0 0 233.7 -1125.63 0zm257.29 -647.5l0 -229.42 746.13 0 0 229.42 -746.13 0zm1445.51 647.5l0 -1500.84 656.08 0c162.95,0 305.88,31.45 428.81,94.34 122.93,62.9 218.69,150.09 287.3,261.58 68.61,111.49 102.92,242.99 102.92,394.5 0,150.09 -34.31,281.23 -102.92,393.44 -68.61,112.2 -164.37,199.75 -287.3,262.64 -122.93,62.89 -265.86,94.34 -428.81,94.34l-656.08 0zm278.73 -235.85l364.49 0c111.49,0 208.68,-21.44 291.59,-64.32 82.9,-42.88 146.86,-102.91 191.89,-180.1 45.02,-77.18 67.54,-167.23 67.54,-270.15 0,-104.34 -22.52,-194.75 -67.54,-271.22 -45.03,-76.47 -108.99,-136.15 -191.89,-179.03 -82.91,-42.88 -180.1,-64.32 -291.59,-64.32l-364.49 0 0 1029.14z"/>
   <path class="fil1" d="M10627.18 10384.19c-114.64,0 -227.68,-18.08 -334.68,-59.95 -99.43,-38.91 -189.61,-94.45 -267.03,-168.07 -76.19,-72.45 -134.96,-157.69 -176.3,-254.38 -43.39,-101.51 -62.44,-209.33 -62.44,-319.46 0,-110.13 19.05,-217.95 62.44,-319.46 41.34,-96.69 100.11,-181.93 176.3,-254.37 77.42,-73.62 167.6,-129.17 267.03,-168.08 106.38,-41.63 218.53,-59.95 332.54,-59.95 114.29,0 227.08,17.97 333.67,59.98 99.04,39.04 188.66,94.61 265.89,168.05 76.19,72.44 134.96,157.68 176.3,254.37 43.39,101.51 62.44,209.33 62.44,319.46 0,110.47 -19.17,218.54 -62.41,320.47 -41.12,96.92 -99.79,182.41 -176.44,254.55 -77.32,72.77 -167.05,127.95 -265.78,166.86 -105.98,41.77 -217.87,59.98 -331.53,59.98zm2401.27 -620.48l0 -961.8 336.58 0 0 1560.84 -273.67 0 -783.35 -961.79 0 961.79 -336.58 0 0 -1560.84 273.67 0 783.35 961.8zm-2403.41 316.06c68.3,0 135.41,-11.02 198.97,-36.44 59.39,-23.76 112.13,-58.06 157.01,-103.62 44.95,-45.63 79.49,-98.55 104.09,-157.71 26.4,-63.49 37.36,-131.12 37.36,-199.67 0,-68.54 -10.96,-136.18 -37.36,-199.67 -24.59,-59.15 -59.15,-112.07 -104.09,-157.7 -44.89,-45.56 -97.62,-79.86 -157.01,-103.62 -63.56,-25.42 -130.67,-36.44 -198.97,-36.44 -67.89,0 -134.7,10.88 -197.8,36.4 -59.38,24.02 -112,58.54 -157.28,103.82 -45.42,45.43 -80.33,98.2 -105,157.54 -26.4,63.49 -37.36,131.13 -37.36,199.67 0,68.35 11.35,135.35 37.41,198.71 24.45,59.49 58.91,112.85 104.04,158.67 44.88,45.56 97.62,79.86 157.01,103.62 63.56,25.42 130.68,36.44 198.98,36.44z"/>
   <path class="fil2" d="M10627.18 10354.19c-117.21,0 -225.13,-19.3 -323.75,-57.89 -98.63,-38.59 -184.39,-92.55 -257.29,-161.87 -72.9,-69.33 -129.36,-150.8 -169.38,-244.43 -40.02,-93.62 -60.03,-196.18 -60.03,-307.67 0,-111.49 20.01,-214.05 60.03,-307.67 40.02,-93.62 96.48,-175.1 169.38,-244.42 72.9,-69.32 158.66,-123.28 257.29,-161.88 98.62,-38.59 205.83,-57.89 321.61,-57.89 117.2,0 224.76,19.3 322.67,57.89 97.92,38.6 183.32,92.56 256.22,161.88 72.9,69.32 129.36,150.8 169.38,244.42 40.02,93.62 60.03,196.18 60.03,307.67 0,111.49 -20.01,214.41 -60.03,308.75 -40.02,94.33 -96.48,175.81 -169.38,244.42 -72.9,68.61 -158.3,122.21 -256.22,160.8 -97.91,38.59 -204.75,57.89 -320.53,57.89zm-2.14 -244.42c75.75,0 145.79,-12.87 210.11,-38.59 64.32,-25.73 120.07,-62.54 167.24,-110.42 47.17,-47.89 83.97,-103.63 110.42,-167.24 26.44,-63.61 39.66,-134 39.66,-211.19 0,-77.18 -13.22,-147.58 -39.66,-211.19 -26.45,-63.6 -63.25,-119.35 -110.42,-167.23 -47.17,-47.89 -102.92,-84.69 -167.24,-110.42 -64.32,-25.73 -134.36,-38.59 -210.11,-38.59 -75.76,0 -145.44,12.86 -209.05,38.59 -63.61,25.73 -119.35,62.53 -167.24,110.42 -47.88,47.88 -85.04,103.63 -111.49,167.23 -26.44,63.61 -39.66,134.01 -39.66,211.19 0,75.76 13.22,145.8 39.66,210.12 26.45,64.32 63.25,120.42 110.42,168.31 47.17,47.88 102.92,84.69 167.24,110.42 64.32,25.72 134.36,38.59 210.12,38.59zm1376.39 222.98l0 -1500.84 229.41 0 941.24 1155.65 -113.63 0 0 -1155.65 276.58 0 0 1500.84 -229.41 0 -941.24 -1155.64 113.63 0 0 1155.64 -276.58 0z"/>
   <path class="fil1" d="M15738.4 10002.81l-711.08 0 -148.63 347.34 -353.49 0 702.38 -1560.84 313.2 0 704.61 1560.84 -357.82 0 -149.17 -347.34zm887.64 347.34l0 -1560.84 338.73 0 0 1560.84 -338.73 0zm-1007.32 -626.03l-236.51 -550.69 -235.64 550.69 472.15 0z"/>
   <path class="fil2" d="M14571.6 10320.15l675.38 -1500.84 274.43 0 677.52 1500.84 -291.59 0 -581.03 -1352.9 111.49 0 -578.9 1352.9 -287.3 0zm310.89 -347.34l75.04 -218.69 810.45 0 75.04 218.69 -960.53 0zm1773.55 347.34l0 -1500.84 278.73 0 0 1500.84 -278.73 0z"/>
  </g>
 </g>
</svg>
